<svg width="400" height="400" viewBox="0 0 400 400" fill="none" xmlns="http://www.w3.org/2000/svg">
<g id="webpage 1">
<g id="Group">
<path id="Vector" d="M0 71.0938V388.281C0 394.753 5.24687 400 11.7188 400H388.281C394.753 400 400 394.753 400 388.281V71.0938L376.562 59.375H22.8016L0 71.0938Z" fill="#E4F5FF"/>
<path id="Vector_2" d="M400 71.0938V388.281C400 394.75 394.75 400 388.281 400H200V59.375H376.562L400 71.0938Z" fill="#A4DCFF"/>
<path id="Vector_3" d="M400 11.7188C400 5.24687 394.753 0 388.281 0H11.7188C5.24687 0 0 5.24687 0 11.7188V71.0938H400V11.7188Z" fill="#4249C5"/>
<path id="Vector_4" d="M400 11.7188V71.0938H200V0H388.281C394.75 0 400 5.25 400 11.7188Z" fill="#2B249B"/>
<path id="Vector_5" d="M352.344 23.4375H376.562V47.6562H352.344V23.4375Z" fill="#FF80AA"/>
<path id="Vector_6" d="M305.469 23.4375H328.906V47.6562H305.469V23.4375Z" fill="#4249C5"/>
<path id="Vector_7" d="M258.594 23.4375H282.031V47.6562H258.594V23.4375Z" fill="#4249C5"/>
<path id="Vector_8" d="M23.4375 23.4375H235.156V47.6562H23.4375V23.4375Z" fill="#5F59F0"/>
<path id="Vector_9" d="M200 23.4375H235.156V47.6562H200V23.4375Z" fill="#4249C5"/>
<g id="Top">
<path id="Vector_10" d="M340.625 106.25H59.375C52.9031 106.25 47.6562 111.497 47.6562 117.969V164.844C47.6562 171.316 52.9031 176.562 59.375 176.562H340.625C347.097 176.562 352.344 171.316 352.344 164.844V117.969C352.344 111.497 347.097 106.25 340.625 106.25Z" fill="#A4DCFF"/>
<path id="Vector_11" d="M352.344 117.969V164.844C352.344 171.312 347.094 176.562 340.625 176.562H200V106.25H340.625C347.094 106.25 352.344 111.5 352.344 117.969Z" fill="#59C0FF"/>
</g>
<g id="Middle">
<path id="Vector_12" d="M176.562 200H59.375C52.9031 200 47.6562 205.247 47.6562 211.719V258.594C47.6562 265.066 52.9031 270.312 59.375 270.312H176.562C183.034 270.312 188.281 265.066 188.281 258.594V211.719C188.281 205.247 183.034 200 176.562 200Z" fill="#A4DCFF"/>
<path id="Vector_13" d="M340.625 200H223.438C216.966 200 211.719 205.247 211.719 211.719V258.594C211.719 265.066 216.966 270.312 223.438 270.312H340.625C347.097 270.312 352.344 265.066 352.344 258.594V211.719C352.344 205.247 347.097 200 340.625 200Z" fill="#59C0FF"/>
</g>
<g id="Bottom">
<path id="Vector_14" d="M121.875 293.75H59.375C52.9031 293.75 47.6562 298.997 47.6562 305.469V352.344C47.6562 358.816 52.9031 364.062 59.375 364.062H121.875C128.347 364.062 133.594 358.816 133.594 352.344V305.469C133.594 298.997 128.347 293.75 121.875 293.75Z" fill="#FCA841"/>
<path id="Vector_15" d="M231.25 293.75H168.75C162.278 293.75 157.031 298.997 157.031 305.469V352.344C157.031 358.816 162.278 364.062 168.75 364.062H231.25C237.722 364.062 242.969 358.816 242.969 352.344V305.469C242.969 298.997 237.722 293.75 231.25 293.75Z" fill="#FCA841"/>
<g id="Group_2">
<path id="Vector_16" d="M242.969 305.469V352.344C242.969 358.812 237.719 364.062 231.25 364.062H200V293.75H231.25C237.719 293.75 242.969 299 242.969 305.469Z" fill="#F96B19"/>
<path id="Vector_17" d="M340.625 293.75H278.125C271.653 293.75 266.406 298.997 266.406 305.469V352.344C266.406 358.816 271.653 364.062 278.125 364.062H340.625C347.097 364.062 352.344 358.816 352.344 352.344V305.469C352.344 298.997 347.097 293.75 340.625 293.75Z" fill="#F96B19"/>
</g>
</g>
</g>
</g>
</svg>
